<svg width="339" height="254" viewBox="0 0 339 254" fill="none" xmlns="http://www.w3.org/2000/svg">
<path d="M49 1L49 253M115 1L115 253M180 1L180 253M244 1L244 253M90.5 194V229M90.5 87V122M146.5 136V171M211.5 127V162M211.5 203V238M209.5 49V84M144.5 20V55M1 1H338V253H1V1ZM103 211C103 218.18 97.1797 224 90 224C82.8203 224 77 218.18 77 211C77 203.82 82.8203 198 90 198C97.1797 198 103 203.82 103 211ZM103 104C103 111.18 97.1797 117 90 117C82.8203 117 77 111.18 77 104C77 96.8203 82.8203 91 90 91C97.1797 91 103 96.8203 103 104ZM159 153C159 160.18 153.18 166 146 166C138.82 166 133 160.18 133 153C133 145.82 138.82 140 146 140C153.18 140 159 145.82 159 153ZM224 144C224 151.18 218.18 157 211 157C203.82 157 198 151.18 198 144C198 136.82 203.82 131 211 131C218.18 131 224 136.82 224 144ZM224 220C224 227.18 218.18 233 211 233C203.82 233 198 227.18 198 220C198 212.82 203.82 207 211 207C218.18 207 224 212.82 224 220ZM222 66C222 73.1797 216.18 79 209 79C201.82 79 196 73.1797 196 66C196 58.8203 201.82 53 209 53C216.18 53 222 58.8203 222 66ZM157 37C157 44.1797 151.18 50 144 50C136.82 50 131 44.1797 131 37C131 29.8203 136.82 24 144 24C151.18 24 157 29.8203 157 37Z" stroke="#E9DECA"/>
</svg>
