<svg width="353" height="237" viewBox="0 0 353 237" fill="none" xmlns="http://www.w3.org/2000/svg">
<path d="M34.5001 214C18.5001 170.333 5 88.5 34.5001 8.5M62.0001 12.5C49.8334 60.1667 32.8001 166.6 62.0001 211M94.5001 32.5C83.1667 70.3333 67.3001 155.1 94.5001 191.5M186 53C178.833 75.3333 168.8 131.4 186 177M213 177C206.333 154.667 197 101.8 213 69M244.5 166C240.5 152.833 234.9 117.9 244.5 83.5M278.5 158.5C274.167 147.667 268.1 119.6 278.5 94M309.5 155.5C295 146 292.5 113.5 309.5 97M53.9853 102.5L88.9845 101.471M129.985 34.5002L164.984 33.4708M118.985 151.5L153.984 150.471M53.9853 206.5L88.9845 205.471M184.985 215.5L219.984 214.471M184.985 140.5L219.984 139.471M186.985 65.5002L221.984 64.4708M1 1H352V236H1V1ZM85 101.5C85 108.404 79.4036 114 72.5 114C65.5964 114 60 108.404 60 101.5C60 94.5964 65.5964 89 72.5 89C79.4036 89 85 94.5964 85 101.5ZM161 33.5C161 40.4036 155.404 46 148.5 46C141.596 46 136 40.4036 136 33.5C136 26.5964 141.596 21 148.5 21C155.404 21 161 26.5964 161 33.5ZM150 150.5C150 157.404 144.404 163 137.5 163C130.596 163 125 157.404 125 150.5C125 143.596 130.596 138 137.5 138C144.404 138 150 143.596 150 150.5ZM85 205.5C85 212.404 79.4036 218 72.5 218C65.5964 218 60 212.404 60 205.5C60 198.596 65.5964 193 72.5 193C79.4036 193 85 198.596 85 205.5ZM216 214.5C216 221.404 210.404 227 203.5 227C196.596 227 191 221.404 191 214.5C191 207.596 196.596 202 203.5 202C210.404 202 216 207.596 216 214.5ZM216 139.5C216 146.404 210.404 152 203.5 152C196.596 152 191 146.404 191 139.5C191 132.596 196.596 127 203.5 127C210.404 127 216 132.596 216 139.5ZM218 64.5C218 71.4036 212.404 77 205.5 77C198.596 77 193 71.4036 193 64.5C193 57.5964 198.596 52 205.5 52C212.404 52 218 57.5964 218 64.5Z" stroke="#E9DECA"/>
</svg>
