<svg width="337" height="246" viewBox="0 0 337 246" fill="none" xmlns="http://www.w3.org/2000/svg">
<path d="M47 4L47 245H1V1L180 1L180 245H49L49 4H47ZM182 1L336 1V245H182L182 1ZM113 2L113 243H115L115 2H113ZM244 2L244 243H246L246 2L244 2ZM88 194V192.326L86.5259 193.12L82.6894 195.185C81.8223 195.064 80.9217 195 80 195C76.815 195 73.8828 195.761 71.7131 197.043C69.5657 198.312 68 200.208 68 202.5C68 203.785 68.492 204.945 69.3028 205.941C66.6719 208.134 65 211.369 65 215C65 221.669 70.6388 227 77.5 227C84.3612 227 90 221.669 90 215C90 212.476 89.1926 210.144 87.817 208.22C87.9773 208.135 88.134 208.047 88.2869 207.957C90.4343 206.688 92 204.792 92 202.5C92 200.208 90.4343 198.312 88.2869 197.043C88.1927 196.987 88.097 196.933 88 196.879V194ZM80 197C80.2613 197 80.5199 197.006 80.7755 197.017L81.3941 197.488L86.3941 201.296L88 202.518V200.5V199.246C89.3418 200.235 90 201.388 90 202.5C90 203.798 89.1033 205.152 87.2694 206.235C87.0208 206.382 86.758 206.522 86.482 206.654C84.2029 204.396 81.0115 203 77.5 203C75.1013 203 72.852 203.652 70.9408 204.784C70.3109 204.048 70 203.264 70 202.5C70 201.202 70.8967 199.848 72.7306 198.765C74.542 197.694 77.1099 197 80 197ZM86 195.985C85.8836 195.943 85.7659 195.903 85.6471 195.864L86 195.674V195.985ZM86 198.129V198.482L85.0856 197.785C85.4023 197.891 85.7075 198.006 86 198.129ZM77.5 205C80.1358 205 82.5308 205.92 84.3657 207.433C83.0528 207.794 81.5742 208 80 208C77.1099 208 74.542 207.306 72.7306 206.235C72.6851 206.208 72.6401 206.181 72.5958 206.154C74.0559 205.418 75.7232 205 77.5 205ZM67 215C67 211.933 68.4581 209.168 70.7657 207.327C71.0653 207.551 71.3823 207.762 71.7131 207.957C73.8828 209.239 76.815 210 80 210C82.143 210 84.1716 209.656 85.9304 209.04C87.2327 210.709 88 212.775 88 215C88 220.481 83.3413 225 77.5 225C71.6587 225 67 220.481 67 215ZM89 76V74.3258L87.5259 75.1195L83.6894 77.1853C82.8223 77.0637 81.9218 77 81 77C77.815 77 74.8828 77.7608 72.7131 79.0429C70.5657 80.3118 69 82.2082 69 84.5C69 85.7848 69.492 86.9453 70.3028 87.9406C67.6719 90.1339 66 93.3687 66 97C66 103.669 71.6388 109 78.5 109C85.3612 109 91 103.669 91 97C91 94.4764 90.1926 92.1444 88.817 90.2204C88.9773 90.1353 89.134 90.0475 89.2869 89.9571C91.4343 88.6882 93 86.7918 93 84.5C93 82.2082 91.4343 80.3118 89.2869 79.0429C89.1927 78.9872 89.097 78.9325 89 78.8788V76ZM81 79C81.2613 79 81.5199 79.0057 81.7755 79.0168L82.3941 79.4879L87.3941 83.2956L89 84.5185V82.5V81.2461C90.3418 82.235 91 83.3879 91 84.5C91 85.7981 90.1033 87.1516 88.2694 88.2353C88.0208 88.3822 87.758 88.522 87.482 88.6539C85.2029 86.3964 82.0115 85 78.5 85C76.1013 85 73.852 85.6516 71.9408 86.7841C71.3109 86.0478 71 85.2643 71 84.5C71 83.2019 71.8967 81.8484 73.7306 80.7647C75.542 79.6943 78.1099 79 81 79ZM87 77.9849C86.8836 77.9434 86.7659 77.9032 86.6471 77.8642L87 77.6742V77.9849ZM87 80.1294V80.4815L86.0856 79.7851C86.4023 79.8908 86.7075 80.0059 87 80.1294ZM78.5 87C81.1358 87 83.5308 87.92 85.3657 89.4334C84.0528 89.794 82.5742 90 81 90C78.1099 90 75.542 89.3057 73.7306 88.2353C73.6851 88.2084 73.6401 88.1813 73.5958 88.1541C75.0559 87.4181 76.7232 87 78.5 87ZM68 97C68 93.9334 69.4581 91.1681 71.7657 89.3269C72.0653 89.5513 72.3823 89.7617 72.7131 89.9571C74.8828 91.2392 77.815 92 81 92C83.143 92 85.1716 91.6556 86.9304 91.0397C88.2327 92.7094 89 94.7754 89 97C89 102.481 84.3413 107 78.5 107C72.6587 107 68 102.481 68 97ZM154 125V123.326L152.526 124.12L148.689 126.185C147.822 126.064 146.922 126 146 126C142.815 126 139.883 126.761 137.713 128.043C135.566 129.312 134 131.208 134 133.5C134 134.785 134.492 135.945 135.303 136.941C132.672 139.134 131 142.369 131 146C131 152.669 136.639 158 143.5 158C150.361 158 156 152.669 156 146C156 143.476 155.193 141.144 153.817 139.22C153.977 139.135 154.134 139.047 154.287 138.957C156.434 137.688 158 135.792 158 133.5C158 131.208 156.434 129.312 154.287 128.043C154.193 127.987 154.097 127.933 154 127.879V125ZM146 128C146.261 128 146.52 128.006 146.776 128.017L147.394 128.488L152.394 132.296L154 133.518V131.5V130.246C155.342 131.235 156 132.388 156 133.5C156 134.798 155.103 136.152 153.269 137.235C153.021 137.382 152.758 137.522 152.482 137.654C150.203 135.396 147.012 134 143.5 134C141.101 134 138.852 134.652 136.941 135.784C136.311 135.048 136 134.264 136 133.5C136 132.202 136.897 130.848 138.731 129.765C140.542 128.694 143.11 128 146 128ZM152 126.985C151.884 126.943 151.766 126.903 151.647 126.864L152 126.674V126.985ZM152 129.129V129.481L151.086 128.785C151.402 128.891 151.707 129.006 152 129.129ZM143.5 136C146.136 136 148.531 136.92 150.366 138.433C149.053 138.794 147.574 139 146 139C143.11 139 140.542 138.306 138.731 137.235C138.685 137.208 138.64 137.181 138.596 137.154C140.056 136.418 141.723 136 143.5 136ZM133 146C133 142.933 134.458 140.168 136.766 138.327C137.065 138.551 137.382 138.762 137.713 138.957C139.883 140.239 142.815 141 146 141C148.143 141 150.172 140.656 151.93 140.04C153.233 141.709 154 143.775 154 146C154 151.481 149.341 156 143.5 156C137.659 156 133 151.481 133 146ZM221 201V199.326L219.526 200.12L215.689 202.185C214.822 202.064 213.922 202 213 202C209.815 202 206.883 202.761 204.713 204.043C202.566 205.312 201 207.208 201 209.5C201 210.785 201.492 211.945 202.303 212.941C199.672 215.134 198 218.369 198 222C198 228.669 203.639 234 210.5 234C217.361 234 223 228.669 223 222C223 219.476 222.193 217.144 220.817 215.22C220.977 215.135 221.134 215.047 221.287 214.957C223.434 213.688 225 211.792 225 209.5C225 207.208 223.434 205.312 221.287 204.043C221.193 203.987 221.097 203.933 221 203.879V201ZM213 204C213.261 204 213.52 204.006 213.776 204.017L214.394 204.488L219.394 208.296L221 209.518V207.5V206.246C222.342 207.235 223 208.388 223 209.5C223 210.798 222.103 212.152 220.269 213.235C220.021 213.382 219.758 213.522 219.482 213.654C217.203 211.396 214.012 210 210.5 210C208.101 210 205.852 210.652 203.941 211.784C203.311 211.048 203 210.264 203 209.5C203 208.202 203.897 206.848 205.731 205.765C207.542 204.694 210.11 204 213 204ZM219 202.985C218.884 202.943 218.766 202.903 218.647 202.864L219 202.674V202.985ZM219 205.129V205.481L218.086 204.785C218.402 204.891 218.707 205.006 219 205.129ZM210.5 212C213.136 212 215.531 212.92 217.366 214.433C216.053 214.794 214.574 215 213 215C210.11 215 207.542 214.306 205.731 213.235C205.685 213.208 205.64 213.181 205.596 213.154C207.056 212.418 208.723 212 210.5 212ZM200 222C200 218.933 201.458 216.168 203.766 214.327C204.065 214.551 204.382 214.762 204.713 214.957C206.883 216.239 209.815 217 213 217C215.143 217 217.172 216.656 218.93 216.04C220.233 217.709 221 219.775 221 222C221 227.481 216.341 232 210.5 232C204.659 232 200 227.481 200 222ZM220 127V125.326L218.526 126.12L214.689 128.185C213.822 128.064 212.922 128 212 128C208.815 128 205.883 128.761 203.713 130.043C201.566 131.312 200 133.208 200 135.5C200 136.785 200.492 137.945 201.303 138.941C198.672 141.134 197 144.369 197 148C197 154.669 202.639 160 209.5 160C216.361 160 222 154.669 222 148C222 145.476 221.193 143.144 219.817 141.22C219.977 141.135 220.134 141.047 220.287 140.957C222.434 139.688 224 137.792 224 135.5C224 133.208 222.434 131.312 220.287 130.043C220.193 129.987 220.097 129.933 220 129.879V127ZM212 130C212.261 130 212.52 130.006 212.776 130.017L213.394 130.488L218.394 134.296L220 135.518V133.5V132.246C221.342 133.235 222 134.388 222 135.5C222 136.798 221.103 138.152 219.269 139.235C219.021 139.382 218.758 139.522 218.482 139.654C216.203 137.396 213.012 136 209.5 136C207.101 136 204.852 136.652 202.941 137.784C202.311 137.048 202 136.264 202 135.5C202 134.202 202.897 132.848 204.731 131.765C206.542 130.694 209.11 130 212 130ZM218 128.985C217.884 128.943 217.766 128.903 217.647 128.864L218 128.674V128.985ZM218 131.129V131.481L217.086 130.785C217.402 130.891 217.707 131.006 218 131.129ZM209.5 138C212.136 138 214.531 138.92 216.366 140.433C215.053 140.794 213.574 141 212 141C209.11 141 206.542 140.306 204.731 139.235C204.685 139.208 204.64 139.181 204.596 139.154C206.056 138.418 207.723 138 209.5 138ZM199 148C199 144.933 200.458 142.168 202.766 140.327C203.065 140.551 203.382 140.762 203.713 140.957C205.883 142.239 208.815 143 212 143C214.143 143 216.172 142.656 217.93 142.04C219.233 143.709 220 145.775 220 148C220 153.481 215.341 158 209.5 158C203.659 158 199 153.481 199 148ZM221 47V45.3258L219.526 46.1195L215.689 48.1853C214.822 48.0637 213.922 48 213 48C209.815 48 206.883 48.7608 204.713 50.0429C202.566 51.3118 201 53.2082 201 55.5C201 56.7848 201.492 57.9453 202.303 58.9406C199.672 61.1339 198 64.3687 198 68C198 74.6688 203.639 80 210.5 80C217.361 80 223 74.6688 223 68C223 65.4764 222.193 63.1444 220.817 61.2203C220.977 61.1353 221.134 61.0475 221.287 60.9571C223.434 59.6882 225 57.7918 225 55.5C225 53.2082 223.434 51.3118 221.287 50.0429C221.193 49.9872 221.097 49.9325 221 49.8788V47ZM213 50C213.261 50 213.52 50.0057 213.776 50.0168L214.394 50.4879L219.394 54.2956L221 55.5185V53.5V52.2461C222.342 53.235 223 54.3879 223 55.5C223 56.7981 222.103 58.1516 220.269 59.2353C220.021 59.3822 219.758 59.522 219.482 59.6539C217.203 57.3964 214.012 56 210.5 56C208.101 56 205.852 56.6516 203.941 57.7841C203.311 57.0478 203 56.2643 203 55.5C203 54.2019 203.897 52.8484 205.731 51.7647C207.542 50.6943 210.11 50 213 50ZM219 48.9849C218.884 48.9435 218.766 48.9032 218.647 48.8642L219 48.6742V48.9849ZM219 51.1294V51.4815L218.086 50.7851C218.402 50.8909 218.707 51.0059 219 51.1294ZM210.5 58C213.136 58 215.531 58.92 217.366 60.4334C216.053 60.794 214.574 61 213 61C210.11 61 207.542 60.3057 205.731 59.2353C205.685 59.2084 205.64 59.1813 205.596 59.1541C207.056 58.4181 208.723 58 210.5 58ZM200 68C200 64.9334 201.458 62.1681 203.766 60.3269C204.065 60.5513 204.382 60.7616 204.713 60.9571C206.883 62.2392 209.815 63 213 63C215.143 63 217.172 62.6556 218.93 62.0397C220.233 63.7094 221 65.7754 221 68C221 73.4814 216.341 78 210.5 78C204.659 78 200 73.4814 200 68ZM155 9V7.32578L153.526 8.11953L149.689 10.1853C148.822 10.0637 147.922 10 147 10C143.815 10 140.883 10.7608 138.713 12.0429C136.566 13.3118 135 15.2082 135 17.5C135 18.7848 135.492 19.9453 136.303 20.9406C133.672 23.1339 132 26.3687 132 30C132 36.6688 137.639 42 144.5 42C151.361 42 157 36.6688 157 30C157 27.4764 156.193 25.1444 154.817 23.2204C154.977 23.1353 155.134 23.0475 155.287 22.9571C157.434 21.6882 159 19.7918 159 17.5C159 15.2082 157.434 13.3118 155.287 12.0429C155.193 11.9872 155.097 11.9325 155 11.8788V9ZM147 12C147.261 12 147.52 12.0057 147.776 12.0168L148.394 12.4879L153.394 16.2956L155 17.5185V15.5V14.2461C156.342 15.235 157 16.3879 157 17.5C157 18.7981 156.103 20.1516 154.269 21.2353C154.021 21.3822 153.758 21.522 153.482 21.6539C151.203 19.3964 148.012 18 144.5 18C142.101 18 139.852 18.6516 137.941 19.7841C137.311 19.0478 137 18.2643 137 17.5C137 16.2019 137.897 14.8484 139.731 13.7647C141.542 12.6943 144.11 12 147 12ZM153 10.9849C152.884 10.9435 152.766 10.9032 152.647 10.8642L153 10.6742V10.9849ZM153 13.1294V13.4815L152.086 12.7851C152.402 12.8909 152.707 13.0059 153 13.1294ZM144.5 20C147.136 20 149.531 20.92 151.366 22.4334C150.053 22.794 148.574 23 147 23C144.11 23 141.542 22.3057 139.731 21.2353C139.685 21.2084 139.64 21.1813 139.596 21.1541C141.056 20.4181 142.723 20 144.5 20ZM134 30C134 26.9334 135.458 24.1681 137.766 22.3269C138.065 22.5513 138.382 22.7616 138.713 22.9571C140.883 24.2392 143.815 25 147 25C149.143 25 151.172 24.6556 152.93 24.0397C154.233 25.7094 155 27.7754 155 30C155 35.4814 150.341 40 144.5 40C138.659 40 134 35.4814 134 30Z" stroke="#E9DECA" stroke-width="2"/>
</svg>
