<svg width="359" height="245" viewBox="0 0 359 245" fill="none" xmlns="http://www.w3.org/2000/svg">
<path d="M51.3586 55.6516L85.3586 90.6516M139.641 45.6523L169.641 14.6523M235.482 33.1326L224.482 73.1326M216.678 141.618L248.678 114.618M168.635 160.342L139.635 129.342M97 195.5H54M228.499 188.965L231.499 231.965M1 1H358V244H1V1ZM82 72.5C82 81.0604 75.0604 88 66.5 88C57.9396 88 51 81.0604 51 72.5C51 63.9396 57.9396 57 66.5 57C75.0604 57 82 63.9396 82 72.5ZM170 30.5C170 39.0604 163.06 46 154.5 46C145.94 46 139 39.0604 139 30.5C139 21.9396 145.94 15 154.5 15C163.06 15 170 21.9396 170 30.5ZM170 145.5C170 154.06 163.06 161 154.5 161C145.94 161 139 154.06 139 145.5C139 136.94 145.94 130 154.5 130C163.06 130 170 136.94 170 145.5ZM92 195.5C92 204.06 85.0604 211 76.5 211C67.9396 211 61 204.06 61 195.5C61 186.94 67.9396 180 76.5 180C85.0604 180 92 186.94 92 195.5ZM246 130.5C246 139.06 239.06 146 230.5 146C221.94 146 215 139.06 215 130.5C215 121.94 221.94 115 230.5 115C239.06 115 246 121.94 246 130.5ZM246 210.5C246 219.06 239.06 226 230.5 226C221.94 226 215 219.06 215 210.5C215 201.94 221.94 195 230.5 195C239.06 195 246 201.94 246 210.5ZM246 53.5C246 62.0604 239.06 69 230.5 69C221.94 69 215 62.0604 215 53.5C215 44.9396 221.94 38 230.5 38C239.06 38 246 44.9396 246 53.5Z" stroke="#E9DECA"/>
</svg>
