<svg width="463" height="352" viewBox="0 0 463 352" fill="none" xmlns="http://www.w3.org/2000/svg">
<path d="M136.5 153C116.5 140.333 71.7 92.2 52.5 1M136.5 160.5C103.167 142.667 29.4 97.1 1 57.5M136.5 169C93.5 158.5 6.2 135.2 1 126M136.5 175H1M136.5 184C101.5 190.167 25.4 206.9 1 224.5M136.5 190.5C103.167 203.167 29.4 241.4 1 293M136.5 198.5C115 210.167 68.1 257.1 52.5 351.5M136.5 207.5C123.167 239.5 104.5 313.1 136.5 351.5M327 153C347 140.333 391.8 92.2 411 1M327 160.5C360.333 142.667 434.1 97.1 462.5 57.5M327 169C370 158.5 457.3 135.2 462.5 126M327 175H462.5M327 184C362 190.167 438.1 206.9 462.5 224.5M327 190.5C360.333 203.167 434.1 241.4 462.5 293M327 198.5C348.5 210.167 395.4 257.1 411 351.5M327 207.5C340.333 239.5 359 313.1 327 351.5M159.5 211C181.167 238.667 240.9 277.4 306.5 211M136.5 145V210.5H326.5V145H136.5ZM136.5 145C165.167 54 243.4 -73.4 327 145M137 210C165.591 293.009 243.619 409.221 327 210M156 144.5C181.833 115.333 247.8 74.5 305 144.5M231 145.5V210.5M273 163H270V189H273V169L286.5 188.5H289.5V163H286.5V183.5L272.5 163M172.512 177.592C169.617 176.76 167.508 175.74 166.184 174.533C164.871 173.314 164.215 171.814 164.215 170.033C164.215 168.018 165.018 166.354 166.623 165.041C168.24 163.717 170.338 163.055 172.916 163.055C174.674 163.055 176.238 163.395 177.609 164.074C178.992 164.754 180.059 165.691 180.809 166.887C181.57 168.082 181.951 169.389 181.951 170.807H178.559C178.559 169.26 178.066 168.047 177.082 167.168C176.098 166.277 174.709 165.832 172.916 165.832C171.252 165.832 169.951 166.201 169.014 166.939C168.088 167.666 167.625 168.68 167.625 169.98C167.625 171.023 168.064 171.908 168.943 172.635C169.834 173.35 171.34 174.006 173.461 174.604C175.594 175.201 177.258 175.863 178.453 176.59C179.66 177.305 180.551 178.143 181.125 179.104C181.711 180.064 182.004 181.195 182.004 182.496C182.004 184.57 181.195 186.234 179.578 187.488C177.961 188.73 175.799 189.352 173.092 189.352C171.334 189.352 169.693 189.018 168.17 188.35C166.646 187.67 165.469 186.744 164.637 185.572C163.816 184.4 163.406 183.07 163.406 181.582H166.799C166.799 183.129 167.367 184.354 168.504 185.256C169.652 186.146 171.182 186.592 173.092 186.592C174.873 186.592 176.238 186.229 177.188 185.502C178.137 184.775 178.611 183.785 178.611 182.531C178.611 181.277 178.172 180.311 177.293 179.631C176.414 178.939 174.82 178.26 172.512 177.592ZM289.641 189H286.248L273.363 169.277V189H269.971V163.406H273.363L286.283 183.217V163.406H289.641V189Z" stroke="#E9DECA"/>
</svg>
