<svg width="526" height="443" viewBox="0 0 526 443" fill="none" xmlns="http://www.w3.org/2000/svg">
<path d="M110.5 90.0333L108.5 0.0333252M115.5 418.033L113.5 328.033M366.617 142.505C366.421 142.714 366.087 143.21 365.717 143.798M365.717 143.798C365.171 144.668 364.549 145.741 364.186 146.384V148.323H361.148C360.743 146.384 360.176 142.505 361.148 142.505C362.363 142.505 361.756 138.626 362.971 137.98C364.186 137.333 366.617 134.747 366.617 137.98C366.617 140.566 366.017 142.936 365.717 143.798ZM406.115 186.465L401.861 182.586C401.051 182.586 399.552 183.362 400.038 186.465C400.524 189.568 397 189.05 395.177 188.404L390.923 196.162C389.1 196.162 385.09 196.679 383.632 198.747C382.173 200.816 380.593 204.781 379.986 206.505C378.973 206.936 376.704 208.057 375.732 209.091C374.76 210.125 372.896 210.384 372.086 210.384V213.616C371.114 215.685 368.845 214.478 367.833 213.616L364.186 212.323L365.717 206.505L364.186 201.333V194.869C363.781 193.576 362.971 190.731 362.971 189.697V183.879C362.971 182.586 361.756 179.354 362.971 178.061C363.943 177.026 364.186 174.182 364.186 172.889L361.148 169.657L359.933 166.424L356.287 163.838L355.072 169.657C354.464 170.734 353.127 172.889 352.641 172.889H348.388C347.172 172.242 344.62 171.337 344.134 172.889C343.526 174.828 342.919 176.768 341.703 176.768C340.488 176.768 339.273 175.475 338.665 174.828C338.179 174.311 337.652 173.32 337.45 172.889V166.424L334.411 163.838V169.657L336.234 172.889V176.768C335.222 178.276 333.075 181.552 332.589 182.586C331.981 183.879 330.766 184.525 329.55 186.465C328.335 188.404 329.55 186.465 327.12 189.697C325.175 192.283 324.284 194.222 324.081 194.869C324.081 194.438 323.838 194.093 322.866 196.162C321.651 198.747 321.043 199.394 319.828 201.333C318.856 202.885 317.397 205.428 316.789 206.505L316.182 208.444C315.372 209.091 313.508 210.384 312.536 210.384C311.564 210.384 310.915 211.677 310.713 212.323V220.081C310.713 221.374 310.105 221.374 309.498 223.313C308.89 225.253 307.067 225.253 307.067 226.545C307.067 227.838 308.282 229.131 307.067 230.424C306.095 231.459 305.852 233.872 305.852 234.949C305.447 236.242 304.515 239.087 304.029 240.121C303.543 241.156 300.99 245.724 299.775 247.879C298.155 247.879 294.792 247.62 294.306 246.586C293.82 245.552 292.483 237.104 291.876 233.01V221.374C292.686 219.003 294.306 213.875 294.306 212.323C294.306 210.772 292.686 205.643 291.876 203.273L294.306 188.404L293.091 182.586L290.053 174.828L288.837 171.596M490.579 147.677C486.73 146.815 478.669 145.22 477.211 145.737C475.388 146.384 469.311 148.97 471.134 153.495C472.957 158.02 474.78 163.838 471.134 166.424C467.488 169.01 458.373 164.485 454.727 168.364C451.081 172.242 448.043 174.828 454.727 175.475C461.411 176.121 464.45 180.646 459.589 185.172C454.727 189.697 456.55 195.515 449.866 195.515C443.182 195.515 448.043 196.808 437.713 197.455C427.383 198.101 426.775 192.929 426.775 200.687C426.775 208.444 423.737 205.859 426.775 211.677C429.813 217.495 431.636 218.788 429.205 221.374C426.775 223.96 424.345 222.667 426.775 225.899C429.205 229.131 429.206 234.303 426.775 233.657C424.344 233.01 419.483 232.364 418.268 225.899C417.052 219.434 422.521 216.848 418.268 214.263C414.014 211.677 413.407 213.616 415.23 209.091C417.053 204.566 417.053 200.687 415.23 195.515C413.407 190.343 412.799 185.172 404.9 186.465M446.828 239.475C446.825 239.518 446.821 239.561 446.818 239.606M446.818 239.606C446.582 242.443 445.188 247.742 441.359 247.232C436.498 246.586 436.498 244.646 433.459 249.172C431.029 252.792 429.611 247.663 429.206 244.646C431.029 240.337 435.89 232.364 440.751 234.949C446.828 238.182 446.807 237.151 446.818 239.606ZM299.775 311.879C308.282 310.586 314.967 313.818 328.335 318.343C341.703 322.869 345.957 318.99 352.641 322.869C359.325 326.747 364.794 340.323 369.656 342.263C374.517 344.202 379.378 344.848 383.024 344.848C386.67 344.848 395.785 340.97 398.823 346.141C401.861 351.313 407.33 349.374 410.368 354.545C412.799 358.683 415.027 360.579 415.837 361.01M444.61 112.436L485.61 11.4358M349.366 355.62L310.366 441.62M124.927 390.99L129.199 411.561C129.344 412.258 130.149 412.585 130.738 412.187L159.578 392.698C160.381 392.155 160.019 390.901 159.051 390.87L125.939 389.787C125.292 389.766 124.795 390.356 124.927 390.99ZM228 207.21C228 274.192 177.408 328.492 115 328.492C52.5918 328.492 2 274.192 2 207.21C2 140.228 52.5918 85.9286 115 85.9286C177.408 85.9286 228 140.228 228 207.21ZM164.561 375.664C164.561 388.181 140.483 398.328 110.781 398.328C81.0785 398.328 57 388.181 57 375.664C57 363.147 81.0785 353 110.781 353C140.483 353 164.561 363.147 164.561 375.664ZM74.996 203.612C74.996 201.812 74.744 200.456 74.24 199.544C73.76 198.608 72.872 198.14 71.576 198.14C70.568 198.14 69.752 198.176 69.128 198.248C68.768 198.296 68.456 198.332 68.192 198.356V208.868H71.576C72.08 208.868 72.536 208.784 72.944 208.616C73.376 208.424 73.736 208.124 74.024 207.716C74.336 207.308 74.576 206.768 74.744 206.096C74.912 205.424 74.996 204.596 74.996 203.612ZM78.2 203.36C78.2 204.728 78.068 205.928 77.804 206.96C77.564 207.968 77.168 208.808 76.616 209.48C76.064 210.152 75.344 210.656 74.456 210.992C73.568 211.328 72.488 211.496 71.216 211.496H68.192V221H65.06V195.8C65.66 195.752 66.296 195.704 66.968 195.656C67.544 195.608 68.192 195.584 68.912 195.584C69.656 195.56 70.4 195.548 71.144 195.548C72.512 195.548 73.652 195.752 74.564 196.16C75.476 196.544 76.196 197.096 76.724 197.816C77.276 198.512 77.66 199.34 77.876 200.3C78.092 201.236 78.2 202.256 78.2 203.36ZM82.5284 221V203H85.0484L85.2644 204.836C85.6724 204.212 86.1764 203.708 86.7764 203.324C87.3764 202.94 88.1204 202.748 89.0084 202.748C89.4404 202.748 89.8124 202.772 90.1244 202.82C90.4364 202.844 90.7004 202.88 90.9164 202.928V206.132C90.6044 206.06 90.2444 205.988 89.8364 205.916C89.4524 205.844 89.0924 205.808 88.7564 205.808C88.1564 205.808 87.6524 205.928 87.2444 206.168C86.8604 206.408 86.5364 206.732 86.2724 207.14C86.0324 207.524 85.8524 207.968 85.7324 208.472C85.6364 208.952 85.5884 209.432 85.5884 209.912V221H82.5284ZM107.305 211.64C107.305 213.536 107.161 215.108 106.873 216.356C106.585 217.58 106.153 218.564 105.577 219.308C105.001 220.028 104.281 220.532 103.417 220.82C102.577 221.108 101.593 221.252 100.465 221.252C99.3612 221.252 98.3772 221.108 97.5132 220.82C96.6732 220.532 95.9652 220.028 95.3892 219.308C94.8132 218.564 94.3692 217.58 94.0572 216.356C93.7692 215.108 93.6252 213.536 93.6252 211.64C93.6252 208.568 94.1772 206.324 95.2812 204.908C96.3852 203.468 98.1132 202.748 100.465 202.748C102.817 202.748 104.545 203.468 105.649 204.908C106.753 206.324 107.305 208.568 107.305 211.64ZM104.173 212.18C104.173 210.908 104.113 209.828 103.993 208.94C103.873 208.052 103.669 207.344 103.381 206.816C103.117 206.264 102.745 205.868 102.265 205.628C101.785 205.388 101.185 205.268 100.465 205.268C99.7452 205.268 99.1452 205.388 98.6652 205.628C98.1852 205.868 97.8012 206.264 97.5132 206.816C97.2492 207.344 97.0572 208.052 96.9372 208.94C96.8172 209.828 96.7572 210.908 96.7572 212.18C96.7572 214.532 97.0332 216.212 97.5852 217.22C98.1372 218.228 99.0972 218.732 100.465 218.732C101.833 218.732 102.793 218.228 103.345 217.22C103.897 216.212 104.173 214.532 104.173 212.18ZM115.937 205.7V216.68C115.937 216.848 115.961 217.052 116.009 217.292C116.057 217.508 116.141 217.724 116.261 217.94C116.405 218.132 116.585 218.3 116.801 218.444C117.041 218.588 117.353 218.66 117.737 218.66C118.289 218.66 118.757 218.624 119.141 218.552C119.525 218.456 119.849 218.372 120.113 218.3V220.82C119.873 220.892 119.453 220.976 118.853 221.072C118.277 221.192 117.665 221.252 117.017 221.252C116.297 221.252 115.673 221.132 115.145 220.892C114.617 220.652 114.185 220.316 113.849 219.884C113.513 219.452 113.261 218.948 113.093 218.372C112.949 217.796 112.877 217.172 112.877 216.5V205.7H110.537V203H112.877V198.68H115.937V203H120.113V205.7H115.937ZM137.223 211.64C137.223 213.536 137.079 215.108 136.791 216.356C136.503 217.58 136.071 218.564 135.495 219.308C134.919 220.028 134.199 220.532 133.335 220.82C132.495 221.108 131.511 221.252 130.383 221.252C129.279 221.252 128.295 221.108 127.431 220.82C126.591 220.532 125.883 220.028 125.307 219.308C124.731 218.564 124.287 217.58 123.975 216.356C123.687 215.108 123.543 213.536 123.543 211.64C123.543 208.568 124.095 206.324 125.199 204.908C126.303 203.468 128.031 202.748 130.383 202.748C132.735 202.748 134.463 203.468 135.567 204.908C136.671 206.324 137.223 208.568 137.223 211.64ZM134.091 212.18C134.091 210.908 134.031 209.828 133.911 208.94C133.791 208.052 133.587 207.344 133.299 206.816C133.035 206.264 132.663 205.868 132.183 205.628C131.703 205.388 131.103 205.268 130.383 205.268C129.663 205.268 129.063 205.388 128.583 205.628C128.103 205.868 127.719 206.264 127.431 206.816C127.167 207.344 126.975 208.052 126.855 208.94C126.735 209.828 126.675 210.908 126.675 212.18C126.675 214.532 126.951 216.212 127.503 217.22C128.055 218.228 129.015 218.732 130.383 218.732C131.751 218.732 132.711 218.228 133.263 217.22C133.815 216.212 134.091 214.532 134.091 212.18ZM142.435 221V203H144.955L145.207 204.62C146.383 203.372 147.859 202.748 149.635 202.748C150.667 202.748 151.531 202.88 152.227 203.144C152.923 203.384 153.475 203.768 153.883 204.296C154.315 204.8 154.615 205.46 154.783 206.276C154.975 207.068 155.071 208.016 155.071 209.12V221H152.011V208.76C152.011 207.632 151.819 206.78 151.435 206.204C151.075 205.628 150.295 205.34 149.095 205.34C148.591 205.34 148.111 205.436 147.655 205.628C147.223 205.82 146.839 206.072 146.503 206.384C146.191 206.696 145.939 207.032 145.747 207.392C145.579 207.728 145.495 208.064 145.495 208.4V221H142.435ZM353.249 136.687C353.249 139.273 352.439 141.643 352.034 142.505C350.413 143.798 346.929 145.996 345.957 144.444C344.985 142.893 343.121 141.643 342.311 141.212L338.057 144.444L336.842 149.616C336.437 150.694 335.384 152.719 334.411 152.202C333.439 151.685 331.981 150.263 331.373 149.616H325.904L324.081 145.737L321.043 142.505L319.828 139.273L321.043 134.101H334.411L335.627 136.687C336.64 135.394 338.908 133.067 339.88 134.101C340.853 135.135 343.526 134.532 344.742 134.101H350.211L353.249 136.687ZM314.967 238.828C316.182 238.182 316.79 233.657 318.005 233.657C319.22 233.657 320.436 230.424 321.651 229.778C322.866 229.131 325.904 227.838 325.904 223.96C325.904 220.081 330.158 215.556 327.12 214.263C324.689 213.228 322.461 213.832 321.651 214.263C320.233 217.495 316.911 223.96 314.967 223.96C313.022 223.96 312.131 230.424 311.928 233.657C311.321 234.088 309.984 235.208 309.498 236.242C309.012 237.277 310.105 238.397 310.713 238.828H314.967ZM381.201 219.434C382.416 219.434 386.062 220.081 384.847 216.202C383.874 213.099 382.821 211.461 382.416 211.03C381.606 210.384 379.621 209.479 378.162 211.03C376.704 212.582 375.124 215.125 374.517 216.202C374.111 216.418 373.544 217.107 374.517 218.141C375.732 219.434 375.732 222.02 376.947 220.727C377.919 219.693 380.188 219.434 381.201 219.434ZM482.679 165.131C481.667 165.131 479.763 165.778 480.249 168.364C480.856 171.596 478.426 178.061 475.388 178.061C472.349 178.061 470.526 173.535 472.957 170.95C475.388 168.364 475.388 165.131 477.211 163.838C478.669 162.804 481.464 164.269 482.679 165.131ZM465.665 269.859C465.058 281.495 465.665 286.02 465.665 294.424C465.665 302.828 465.058 315.758 455.943 315.758C446.828 315.758 443.79 319.636 440.144 312.525C436.498 305.414 446.22 306.061 433.46 303.475C420.699 300.889 414.015 312.525 410.369 303.475C406.723 294.424 401.254 293.131 407.33 286.667C413.407 280.202 412.799 279.556 413.407 273.091C414.014 266.626 423.129 262.101 424.344 264.687C425.56 267.273 424.345 269.859 431.029 264.687C437.713 259.515 445.005 259.515 446.828 264.687C448.651 269.859 455.943 276.323 455.943 273.091C455.943 269.859 465.811 266.626 465.665 269.859ZM475.995 258.222V256.929L477.211 255.636V254.343C475.59 252.835 471.62 249.56 468.703 248.525C465.787 247.491 466.273 244.215 466.88 242.707C464.45 241.63 459.953 240.38 461.411 244C463.234 248.525 454.727 250.465 462.627 254.99C470.526 259.515 475.995 263.176 475.995 258.222ZM360.178 412.671L364.494 434.485C364.635 435.196 365.462 435.526 366.054 435.107L395.192 414.441C395.972 413.887 395.604 412.659 394.647 412.626L361.193 411.478C360.549 411.456 360.053 412.039 360.178 412.671ZM524 232.364C524 306.983 467.14 367.475 397 367.475C326.86 367.475 270 306.983 270 232.364C270 157.744 326.86 97.2525 397 97.2525C467.14 97.2525 524 157.744 524 232.364ZM389.275 410.663C384.778 424.557 361.424 428.602 337.112 419.696C312.8 410.79 296.737 392.306 301.234 378.411C305.731 364.517 329.085 360.472 353.397 369.378C377.709 378.284 393.772 396.768 389.275 410.663Z" stroke="#E9DECA" stroke-width="3"/>
</svg>
